<?xml version="1.0" encoding="UTF-8" standalone="no"?>
<!-- Generator: Adobe Illustrator 25.1.0, SVG Export Plug-In . SVG Version: 6.00 Build 0)  -->

<svg
   version="1.1"
   id="Layer_4"
   x="0px"
   y="0px"
   fill="#f2a035"
   viewBox="0 0 1000 1000"
   style="enable-background:new 0 0 1000 1000;"
   xml:space="preserve"
   sodipodi:docname="tt_bill_gates.svg"
   inkscape:version="1.1.2 (b8e25be8, 2022-02-05)"
   xmlns:inkscape="http://www.inkscape.org/namespaces/inkscape"
   xmlns:sodipodi="http://sodipodi.sourceforge.net/DTD/sodipodi-0.dtd"
   xmlns="http://www.w3.org/2000/svg"
   xmlns:svg="http://www.w3.org/2000/svg"><defs
   id="defs861" /><sodipodi:namedview
   id="namedview859"
   pagecolor="#ffffff"
   bordercolor="#666666"
   borderopacity="1.0"
   inkscape:pageshadow="2"
   inkscape:pageopacity="0.0"
   inkscape:pagecheckerboard="0"
   showgrid="false"
   inkscape:zoom="0.625"
   inkscape:cx="565.6"
   inkscape:cy="500"
   inkscape:window-width="1920"
   inkscape:window-height="1027"
   inkscape:window-x="0"
   inkscape:window-y="25"
   inkscape:window-maximized="1"
   inkscape:current-layer="layer3" />

<rect
   style="fill:none"
   id="rect1040"
   width="707.20001"
   height="720"
   x="104"
   y="67.199997" /><rect
   style="fill:none"
   id="rect1042"
   width="103.99998"
   height="46.399986"
   x="811.20001"
   y="787.20001" /><rect
   style="fill:none"
   id="rect1044"
   width="691.15186"
   height="668.98663"
   x="104"
   y="67.199997" /><rect
   style="fill:none"
   id="rect1070"
   width="768"
   height="745.59998"
   x="104"
   y="67.199997" /><g
   inkscape:groupmode="layer"
   id="layer1"
   inkscape:label="bg"><rect
     style="fill:#f2a035;fill-opacity:1;stroke:#f2a035;stroke-width:11.2826;stroke-miterlimit:4;stroke-dasharray:none;stroke-opacity:1"
     id="rect1174"
     width="921.31799"
     height="816.31512"
     x="72.940918"
     y="8.3440189" /></g><g
   inkscape:groupmode="layer"
   id="layer3"
   inkscape:label="shadow"><rect
     style="fill:#aa4400;fill-opacity:1;stroke:#f2a035;stroke-width:10;stroke-opacity:1"
     id="rect1371"
     width="921.31799"
     height="816.31512"
     x="72.940918"
     y="8.3440189" /><path
     style="fill:#d45500;fill-opacity:1;stroke:#f2a035;stroke-width:16;stroke-opacity:1"
     d="M 79.2,416 V 13.6 H 533.6 988 V 229.21725 444.8345 l -163.6,-6.65872 c -89.98,-3.66229 -170.8,-6.96391 -179.6,-7.3369 l -16,-0.67819 v 15.70147 15.70147 L 644,460.68901 C 667.08795,459.3605 969.37432,447.2 979.31054,447.2 H 988 v 185.6 185.6 l -235.6,-0.21752 c -145.76666,-0.13456 -229.8043,-0.74846 -220.4,-1.61 45.7707,-4.19309 124.8,-14.13643 124.8,-15.70214 0,-0.50924 -14.76,-8.03965 -32.8,-16.73429 -18.04,-8.69463 -32.8,-16.65663 -32.8,-17.69333 0,-1.0367 1.8704,-3.63042 4.15643,-5.76382 2.28603,-2.1334 5.53474,-5.80228 7.21935,-8.15308 l 3.06292,-4.27416 -18.01936,-9.8695 c -17.61686,-9.64906 -53.03707,-32.29838 -54.68841,-34.9703 -0.45727,-0.73989 5.01182,-1.79584 12.15352,-2.34656 7.14169,-0.55074 13.34923,-1.36564 13.79449,-1.8109 0.44527,-0.44528 -1.27683,-2.43966 -3.82688,-4.432 -10.6734,-8.33898 -32.60296,-28.81992 -39.49036,-36.88173 l -7.40901,-8.67233 14.10731,-1.00136 c 7.75902,-0.55076 15.21179,-1.4252 16.56173,-1.94322 1.82349,-0.69974 -0.72415,-4.10138 -9.91063,-13.2328 -12.34548,-12.27154 -17.76486,-19.3005 -27.14011,-35.20098 l -4.96965,-8.42851 7.42896,-7.94216 c 4.08594,-4.36819 9.89384,-9.46553 12.90647,-11.32744 l 5.4775,-3.38528 4.56367,4.37226 c 2.51001,2.40475 6.24056,7.53326 8.29011,11.39672 2.04955,3.86344 4.51966,7.02443 5.48913,7.02443 2.03706,0 14.21181,-8.56096 15.77751,-11.09432 1.98358,-3.20952 4.22238,-1.70429 7.13237,4.79536 l 2.9106,6.50106 5.89612,-6.88829 c 7.46206,-8.71773 16.95281,-25.12984 22.38705,-38.71331 4.39335,-10.98162 9.86461,-32.60839 8.57559,-33.89743 -0.40981,-0.40979 -3.44644,0.38362 -6.74808,1.76314 -3.30164,1.3795 -8.6322,2.28896 -11.84567,2.02099 -5.57945,-0.46525 -5.86321,-0.77554 -6.29865,-6.8872 -0.78658,-11.0401 -1.12453,-11.0827 -13.44599,-1.6952 -11.55665,8.8048 -14.01093,9.17814 -14.07353,2.14082 -0.0331,-3.72735 -7.52375,-20.45602 -9.13645,-20.40434 -0.70843,0.0227 -2.63808,2.96702 -4.28811,6.54293 -1.65004,3.57592 -5.78717,9.43152 -9.19364,13.01246 -6.08782,6.39963 -6.24942,6.46027 -9.46355,3.55152 -4.28193,-3.8751 -13.77731,-23.20752 -16.87056,-34.34819 -2.50761,-9.03142 -5.17921,-49.6 -3.26635,-49.6 0.58611,0 4.3043,2.98528 8.26264,6.63394 3.95834,3.64867 7.6359,6.195 8.17237,5.65854 2.42184,-2.42182 8.74229,-33.78688 9.64187,-47.84747 l 0.99518,-15.55498 14.16106,12.92811 c 7.78858,7.11047 14.21958,12.31021 14.29115,11.555 C 556.13717,382.81296 551.88405,328.0737 546.34285,294.4 542.40512,270.47053 532.01653,228 530.10093,228 c -4.92165,0 -16.95205,8.86168 -30.12901,22.19325 -20.54354,20.78457 -52.28272,59.22377 -60.40307,73.15389 -6.72866,11.54272 -17.96885,35.82462 -17.96885,38.81763 0,3.09494 -2.80966,3.38469 -7.95085,0.81993 -7.88595,-3.93403 -18.80163,-2.25395 -27.92518,4.29808 -4.21503,3.02701 -13.36931,13.14528 -20.85923,23.0558 -26.28872,34.78475 -49.71695,58.21195 -79.82436,79.82088 -47.91073,34.38686 -104.53052,54.43827 -146.02287,51.71273 -8.22164,-0.54005 -19.22913,-2.45697 -24.70889,-4.30297 -5.43517,-1.83098 -10.1882,-3.02298 -10.56229,-2.64888 -0.9979,0.9979 5.66541,19.81568 10.29701,29.07966 9.39482,18.79126 24.55344,36.87752 39.56388,47.20496 14.99275,10.3153 47.01294,22.39504 59.36326,22.39504 8.81009,0 8.77456,1.52538 -0.28424,12.20382 -23.32095,27.49055 -39.67557,53.86749 -43.11817,69.54157 l -1.15949,5.27911 4.59571,-3.0236 c 6.95042,-4.57282 13.26698,-7.51626 14.86689,-6.92776 0.78781,0.28977 -1.73709,5.92686 -5.61087,12.52686 -6.36442,10.84346 -16.66031,34.44557 -16.66031,38.19179 0,0.82227 3.41675,0.46674 7.59277,-0.79006 11.92639,-3.58931 12.59293,-2.49823 5.00827,8.19827 -13.80445,19.46813 -25.60737,40.29216 -28.84127,50.88501 -1.8277,5.98675 -3.06135,11.13848 -2.74143,11.44829 0.31991,0.3098 14.26166,1.99508 30.98166,3.74505 l 30.4,3.18176 -64.4,0.16995 L 79.2,818.4 Z M 860.53386,741.16645 C 856.97723,737.44491 803.46123,677.88 741.60941,608.8 679.75757,539.72 627.54803,481.51197 625.58821,479.44882 l -3.56331,-3.7512 -4.45084,6.1512 c -2.44795,3.38315 -7.25633,8.4539 -10.68529,11.26833 l -6.23448,5.11715 132.32894,125.69344 c 72.78091,69.1314 132.70879,125.31357 133.17306,124.8493 0.46427,-0.46427 -2.06583,-3.88904 -5.62243,-7.61059 z M 576.79475,655.26858 c 2.6429,-34.5814 4.80525,-65.72495 4.80525,-69.20789 v -6.33264 l -7.42526,6.53597 c -4.08389,3.5948 -7.91055,6.53598 -8.50367,6.53598 -0.59312,0 -2.28009,-2.52 -3.74885,-5.6 -2.91422,-6.1112 -3.79753,-6.50578 -7.78121,-3.47582 -2.45514,1.86732 -1.93581,7.10774 6.77342,68.3491 5.18783,36.4797 9.44437,66.62672 9.45899,66.99339 0.0144,0.36666 0.38423,0.30903 0.82133,-0.12816 0.43712,-0.43712 2.95712,-29.08862 5.6,-63.67 z M 590.4,485.97994 c 20.89226,-10.77103 29.90595,-37.30277 20.12582,-59.24023 C 603.89389,411.86384 587.12058,400.8 571.2,400.8 c -15.33592,0 -31.30437,10.12192 -38.77677,24.57944 -3.51993,6.81034 -4.23701,10.27914 -4.18001,20.22056 0.0798,13.92378 2.71745,21.06936 11.27291,30.53922 5.73296,6.34571 11.69707,10.24476 19.67352,12.86163 6.85153,2.24782 24.25889,0.56293 31.21035,-3.02091 z m 158.4,-211.3196 c 64.24,-71.57272 117.08877,-130.97105 117.44171,-131.99628 0.86901,-2.52435 0.38477,-2.07043 -140.88368,132.0656 l -124.24195,117.96919 10.64195,11.08037 10.64197,11.08035 4.8,-5.03351 c 2.64,-2.76844 57.36,-63.59302 121.6,-135.16572 z M 585.68032,366.58195 C 584.91814,352.05304 572,22.112593 572,17.175097 c 0,-0.499637 -0.35802,-0.550415 -0.79558,-0.112841 -0.43759,0.437574 -3.64688,74.897573 -7.1318,165.466674 -3.48489,90.56909 -6.79184,173.36027 -7.34875,183.98038 l -1.01256,19.30933 15.49288,0.0726 15.49288,0.0726 -1.01675,-19.38195 z M 440.03251,313.2 c 2.58451,-5.06 4.90829,-9.60134 5.16394,-10.09189 0.25565,-0.49054 -33.25298,-32.98264 -74.46362,-72.20465 -87.64232,-83.41315 -95.47073,-90.7169 -94.59246,-88.25287 0.76862,2.15636 157.03593,179.44906 158.32632,179.62874 0.47669,0.0664 2.98129,-4.01933 5.56582,-9.07933 z"
     id="path1655" /><path
     style="fill:#d45500;fill-opacity:1;stroke:#f2a035;stroke-width:16;stroke-opacity:1"
     d="m 353.69349,474 c 0.5953,-1.1 10.17779,-15.84336 21.29443,-32.76302 20.51556,-31.22492 23.43839,-34.17067 28.69208,-28.91698 3.76458,3.76458 1.94403,10.34394 -5.98734,21.63779 -10.87176,15.48083 -24.19125,29.53447 -34.43723,36.33536 -9.16563,6.0838 -11.29502,6.90929 -9.56194,3.70685 z"
     id="path1694" /><path
     style="fill:#d45500;fill-opacity:1;stroke:#f2a035;stroke-width:16;stroke-opacity:1"
     d="m 315.2,822.2369 c -49.90869,-1.65191 -117.82679,-6.46333 -157.9759,-11.19127 -8.87364,-1.04496 -9.14562,-1.21833 -8.25659,-5.26309 1.90347,-8.66 13.48129,-30.4427 26.03493,-48.98254 14.11313,-20.84296 14.14897,-21.87846 0.63951,-18.47675 -3.97716,1.00145 -7.47202,1.58001 -7.76637,1.28566 -1.01018,-1.01017 10.48594,-25.886 17.70385,-38.30841 3.97132,-6.83484 7.22057,-12.81724 7.22057,-13.29423 0,-1.39104 -8.28547,0.99007 -14.8,4.25328 -7.46246,3.73805 -7.61379,2.35703 -1.22217,-11.15368 6.04808,-12.78449 20.45109,-33.78693 35.87027,-52.30587 6.59432,-7.92 11.48618,-14.55403 10.87079,-14.74229 -0.61539,-0.18825 -8.41656,-1.80512 -17.33594,-3.59301 -43.60804,-8.74128 -71.51683,-29.71396 -90.57514,-68.0647 -6.10961,-12.29427 -9.96633,-22.97482 -8.73925,-24.20189 0.43312,-0.43312 5.00488,0.48991 10.15946,2.05117 12.94057,3.91957 44.60291,3.95093 62.70945,0.0621 67.21429,-14.43582 136.34536,-61.23558 182.49072,-123.54101 15.06688,-20.34331 18.57147,-24.16906 27.28506,-29.78549 8.49208,-5.47366 16.02835,-5.90119 24.83929,-1.40911 3.42605,1.74669 6.33719,3.00669 6.4692,2.8 0.132,-0.2067 1.92167,-4.69581 3.97696,-9.97581 4.95164,-12.72052 13.62258,-30.11059 19.94461,-40 7.33733,-11.47766 38.73875,-48.65197 55.84594,-66.11277 13.05413,-13.32397 27.19422,-24.2371 29.02795,-22.40337 1.59224,1.59224 10.84888,40.69911 14.33171,60.54772 4.46943,25.47117 8.61538,65.84151 9.2208,89.78582 l 0.43029,17.01748 -7.2,-6.19965 c -3.96,-3.40982 -10.51294,-9.07222 -14.56211,-12.58312 l -7.36211,-6.38347 -0.98122,17.16571 c -0.84843,14.84285 -5.6995,40.96683 -8.42674,45.37957 -0.49067,0.79393 -3.85126,-1.08941 -7.46796,-4.18519 -10.8704,-9.30465 -11.33973,-8.64093 -10.44485,14.77133 0.94221,24.6511 5.31613,42.3684 14.00857,56.74418 8.31896,13.75808 9.82872,14.43756 16.92388,7.61691 3.18169,-3.05859 7.64148,-8.70547 9.91065,-12.54863 l 4.12576,-6.98752 2.85536,5.38752 c 1.57045,2.96316 3.71575,9.11655 4.76731,13.67421 l 1.91196,8.28669 4.17075,-2.56926 c 2.29392,-1.41309 7.53992,-5.3221 11.65781,-8.68668 4.11787,-3.36459 7.89787,-6.11742 8.4,-6.11742 0.50211,0 0.91294,3.16298 0.91294,7.02882 0,4.93337 0.7545,7.31835 2.53086,8 4.3256,1.65988 11.72679,1.0736 17.64076,-1.39741 l 5.66884,-2.36859 -1.01206,5.16859 c -4.42666,22.60689 -16.48414,48.40289 -30.70256,65.68557 l -3.7161,4.51696 -1.69742,-4.46453 c -3.01774,-7.93728 -4.75813,-9.07498 -8.55246,-5.59074 -1.84792,1.6969 -6.14064,4.94752 -9.53938,7.2236 l -6.17952,4.13834 -5.94446,-9.17031 c -8.59476,-13.25881 -10.18504,-14.29299 -16.98924,-11.0483 -6.13464,2.92541 -19.22595,14.41533 -21.7075,19.05216 -3.15632,5.89763 19.87555,39.79704 35.61907,52.42584 l 6.98117,5.6 -7.2,1.08141 c -3.96,0.59477 -11.7,1.13477 -17.2,1.2 -5.5,0.0653 -10,0.66939 -10,1.34261 0,1.38409 36.07595,37.18744 45.05982,44.71931 l 5.85981,4.91275 -4.85981,0.97195 C 548.18691,699.56262 542.13,700 537.4,700 c -4.73,0 -8.6,0.39453 -8.6,0.87675 0,3.28503 27.86954,22.39072 52.39646,35.91991 9.46196,5.21924 18.27976,10.13124 19.59517,10.91553 1.95413,1.16515 0.98338,3.07435 -5.30673,10.43701 -4.23408,4.95606 -7.34504,9.58266 -6.91324,10.28134 0.43181,0.69868 14.88474,8.02272 32.11764,16.27565 17.23289,8.25293 31.10966,15.22818 30.83728,15.50058 -1.91645,1.91645 -86.77637,11.91941 -133.12658,15.69245 -61.37818,4.99635 -155.25923,7.92444 -203.2,6.33768 z M 360.34824,474.38218 C 378.28446,464.0956 407.2,429.17152 407.2,417.79482 c 0,-6.1684 -3.21694,-9.0645 -9.89482,-8.90796 -3.54283,0.083 -10.47822,9.85477 -46.6623,65.74551 -3.92411,6.06126 -1.1761,5.99043 9.70536,-0.25019 z"
     id="path1756" /></g><g
   inkscape:groupmode="layer"
   id="layer2"
   inkscape:label="subject"><g
     id="g856"
     transform="matrix(0.89583264,0,0,0.92134004,92.967362,-37.053454)">
	<ellipse
   cx="533.84003"
   cy="523.96002"
   id="circle840"
   rx="47.760036"
   ry="47.759998"
   style="fill:#f9f9f9" />
	<path
   d="M 392.9,369.04 204.22,194.34 381.25,388.85 c 2.73,-4.53 6.99,-15.15 11.65,-19.81 z"
   id="path842"
   style="fill:#f9f9f9" />
	<path
   d="M 549.85,459.52 533.84,57.8 517.83,459.52 c 10.5,-2.6 21.52,-2.6 32.02,0 z"
   id="path844"
   style="fill:#f9f9f9" />
	<path
   d="M 590.73,489.72 863.47,194.34 568.08,467.07 c 4.53,2.73 8.8,6.03 12.71,9.94 3.9,3.91 7.21,8.18 9.94,12.71 z"
   id="path846"
   style="fill:#f9f9f9" />
	<path
   d="M 1000,523.96 598.28,507.95 c 2.6,10.51 2.6,21.52 0,32.03 z"
   id="path848"
   style="fill:#f9f9f9" />
	<path
   d="m 580.79,570.91 c -3.91,3.91 -8.18,7.21 -12.71,9.94 L 863.46,853.59 590.73,558.2 c -2.73,4.53 -6.04,8.8 -9.94,12.71 z"
   id="path850"
   style="fill:#f9f9f9" />
	<path
   d="m 526.85,685.87 -6.99,-13.98 -6.99,4.66 20.97,144.44 11.65,-151.43 c -6.27,6.16 -12.51,13.33 -18.64,16.31 z"
   id="path852"
   style="fill:#f9f9f9" />
	<path
   d="m 571.11,852.44 c -37.07,-18.24 -68.86,-37.01 -83.87,-51.25 9.62,0.21 20.71,-0.74 32.61,-2.33 -18.8,-13.84 -38.75,-32.71 -59.41,-54.75 14.01,-0.41 27.34,-1.45 39.6,-3.49 -22.13,-16.31 -38.02,-37.09 -50.09,-60.57 4.93,-8.03 16.75,-19.72 30.29,-25.63 8.77,7.08 14.98,15.62 18.64,25.63 8.64,-4.05 16.02,-9.48 22.13,-16.31 5.29,6 7.81,11.48 6.99,16.31 20.99,-21.98 36.57,-51.89 41.93,-86.2 -10.31,4.94 -20.38,8.36 -29.12,3.49 1,-4.86 0.27,-10.92 -1.16,-17.47 -7.97,7.91 -17.26,14.92 -27.96,20.97 0.72,-9.15 -3.61,-19.89 -10.48,-31.45 -5.63,12.76 -12.88,23.2 -23.3,29.12 -23.74,-25.09 -27.96,-62.9 -26.79,-96.68 7.31,1.17 11.03,6.59 19.8,15.14 6.68,-22.67 13.1,-46.03 10.48,-72.22 l 33.78,29.12 c -0.37,-65.99 -9.19,-127.78 -26.79,-185.21 -18.84,1.62 -56.82,48.12 -93.19,90.86 -12.71,19.15 -22.54,39.45 -30.29,60.57 -4.71,-5.58 -12.75,-7.58 -22.13,-8.15 -17.47,4.66 -28.26,18.77 -38.44,32.61 C 217.01,583.37 75.75,629.86 12,598.51 c 18.32,62.7 60.24,101.57 133.95,108.33 -29.25,33.03 -54.98,65.14 -60.57,92.02 8.21,-6.51 16.71,-10.71 25.63,-11.65 -13.27,20.02 -24.22,39.65 -29.12,58.24 8.2,-3.17 16.05,-5.03 23.3,-4.66 -21.33,29.45 -42.94,59.04 -44.27,79.21 183.97,22.2 373.7,17.36 568.43,-10.48 -28.45,-13.12 -56.1,-25.94 -76.88,-36.11 7.2,-7.01 13.49,-14 18.64,-20.97 z M 349.8,499.5 c -20.55,30.69 -40.77,52.42 -64.07,60.57 16.2,-23.93 33.23,-49.09 51.25,-75.71 12.54,-0.97 15.61,6.33 12.82,15.14 z"
   id="path854"
   style="fill:#f9f9f9" />
</g></g></svg>
