<?xml version="1.0" encoding="UTF-8"?>
<!-- Generator: Adobe Illustrator 24.2.3, SVG Export Plug-In . SVG Version: 6.00 Build 0)  -->
<svg version="1.1" id="Layer_4" xmlns="http://www.w3.org/2000/svg" xmlns:xlink="http://www.w3.org/1999/xlink" x="0px" y="0px" viewBox="0 0 1000 1000" style="enable-background:new 0 0 1000 1000;" xml:space="preserve">
<g>
	<path d="M450.27,431.19c-12.11-11.46-38.19-18.03-77.76-19.89c-96.11,87.49-198.58,189.15-262.21,215.19   c50.09-6.75,93.06-2.15,130.2,7.23C209.76,579.47,343.2,487.75,450.27,431.19z"/>
	<path d="M153.71,492.67c47.02-148.28,271.25-128.39,414.1-18.08c2.2-36.04,23.55-62.7,50.63-79.57   c-34.36-39.78-48.82-108.5,23.51-135.62c-60.79-69.32-53.81-146.83-14.47-227.85c0,0-144.67,151.9-177.22,164.56   s-121.16,25.32-121.16,25.32S179.02,382.36,159.13,393.21s-72.33,9.04-72.33,9.04C70.38,449.92,42.09,496.33,0,541.5l10.85,27.12   c25.11-21.88,47.09-39.52,72.33-37.97C96.11,496.08,121.12,485.86,153.71,492.67z M397.83,266.63l-12.66,43.4l-68.72,5.42   L397.83,266.63z"/>
	<path d="M981.92,521.6c-72.33-36.17-65.71-120.26,18.08-159.13c-90.42-5.42-116.45-82.44-54.25-157.32   c-104.88,48.82-173.6-3.62-132.01-122.97l-153.07,67.08c-1.93,0.38-3.75,1.03-5.44,2.01c-0.58,0.34-1.14,0.71-1.67,1.11l-0.76,0.33   c0.03,0.07,0.07,0.14,0.1,0.2c-14.24,11.75-10.59,46.73,9.01,80.67c7.82,13.54,17.05,24.96,26.41,33.4   c-21.97,3.57-39.14,34.43-39.14,71.98c0,32.35,12.74,59.73,30.32,68.98c-14.71,9.55-24.89,30.13-24.89,53.98   c0,20.49,7.51,38.57,18.96,49.31c-16.44,35.52-40.31,68.07-73.21,95.35C430.08,721.99,262.17,838.23,218.81,999h587.7   c-52.44-41.59-83.18-121.16,70.52-193.49c-63.29-43.4-41.59-137.43,65.1-128.39C891.5,615.64,911.39,552.35,981.92,521.6z"/>
</g>
</svg>